<?xml version="1.0" encoding="utf-8"?>
<!-- Generator: Adobe Illustrator 22.0.0, SVG Export Plug-In . SVG Version: 6.00 Build 0)  -->
<svg version="1.1" id="Capa_1" xmlns="http://www.w3.org/2000/svg" xmlns:xlink="http://www.w3.org/1999/xlink" x="0px" y="0px"
	 viewBox="0 0 138 23" style="enable-background:new 0 0 138 23;" xml:space="preserve">
<g>
	<path d="M12,1.2c1.2-0.3,3.1-0.4,5.1-0.4c2.8,0,4.6,0.5,5.9,1.6c1.1,0.8,1.8,2.1,1.8,3.8c0,2.1-1.4,3.9-3.6,4.7v0.1
		c2,0.5,4.4,2.2,4.4,5.4c0,1.9-0.7,3.3-1.8,4.3c-1.5,1.4-3.9,2-7.5,2c-1.9,0-3.4-0.1-4.3-0.3V1.2z M14.8,10.1h2.5
		c2.9,0,4.7-1.5,4.7-3.6c0-2.5-1.9-3.5-4.7-3.5c-1.3,0-2,0.1-2.5,0.2V10.1z M14.8,20.4c0.5,0.1,1.3,0.1,2.3,0.1
		c2.9,0,5.5-1.1,5.5-4.2c0-2.9-2.5-4.2-5.6-4.2h-2.3V20.4z"/>
	<path d="M33.8,15.7l-2.2,6.8h-2.9L36,0.9h3.4l7.4,21.6h-3l-2.3-6.8H33.8z M40.9,13.5l-2.1-6.2c-0.5-1.4-0.8-2.7-1.1-3.9h-0.1
		c-0.3,1.3-0.7,2.6-1.1,3.9l-2.1,6.2H40.9z"/>
	<path d="M50.9,1.2c1.4-0.3,3.4-0.4,5.3-0.4c3,0,4.9,0.5,6.2,1.8c1.1,1,1.7,2.4,1.7,4.1c0,2.8-1.8,4.7-4.1,5.5v0.1
		c1.7,0.6,2.7,2.1,3.2,4.4c0.7,3,1.2,5.1,1.7,5.9h-2.9c-0.4-0.6-0.8-2.5-1.4-5.2c-0.6-3-1.8-4.1-4.3-4.2h-2.6v9.3h-2.8V1.2z
		 M53.7,11h2.8c3,0,4.9-1.6,4.9-4.1c0-2.8-2-4-5-4c-1.3,0-2.3,0.1-2.8,0.3V11z"/>
	<path d="M72,0.9v21.6h-2.8V0.9H72z"/>
	<path d="M77.5,19.1c1.2,0.8,3.1,1.4,5,1.4c2.8,0,4.5-1.5,4.5-3.7c0-2-1.2-3.2-4.1-4.3c-3.5-1.2-5.7-3.1-5.7-6.1
		c0-3.4,2.8-5.9,7-5.9c2.2,0,3.8,0.5,4.8,1.1l-0.8,2.3c-0.7-0.4-2.1-1-4.1-1c-2.9,0-4.1,1.8-4.1,3.2c0,2,1.3,3,4.3,4.2
		c3.6,1.4,5.5,3.2,5.5,6.3c0,3.3-2.5,6.2-7.6,6.2c-2.1,0-4.4-0.6-5.5-1.4L77.5,19.1z"/>
	<path d="M98.7,3.3h-6.6V0.9h16v2.4h-6.6v19.2h-2.8V3.3z"/>
	<path d="M112.7,15.7l-2.2,6.8h-2.9l7.3-21.6h3.4l7.4,21.6h-3l-2.3-6.8H112.7z M119.7,13.5l-2.1-6.2c-0.5-1.4-0.8-2.7-1.1-3.9h-0.1
		c-0.3,1.3-0.7,2.6-1.1,3.9l-2.1,6.2H119.7z"/>
</g>
</svg>
